<svg width="800" height="800" viewBox="0 0 800 800" fill="none" xmlns="http://www.w3.org/2000/svg">
  <path d="M665 400C660 500 617.5 580 527.5 630C482.5 655 435 665 382.5 662.5C340 660 300 647.5 265 625C260 625 257.5 625 252.5 625C220 632.5 190 640 157.5 647.5C152.5 650 150 647.5 152.5 642.5C160 610 167.5 580 175 547.5C175 542.5 175 540 172.5 535C77.5 377.5 172.5 170 355 140C497.5 115 635 210 660 355C662.5 370 665 385 665 400Z" fill="black"/>
  <path d="M115 715C95 715 80 697.5 85 680C90 660 95 640 100 617.5C100 615 102.5 615 105 615C112.5 617.5 120 617.5 127.5 620C132.5 620 130 622.5 130 625C127.5 642.5 122.5 657.5 117.5 675C115 682.5 115 682.5 125 680C142.5 677.5 157.5 672.5 175 667.5C180 667.5 180 667.5 182.5 672.5C182.5 680 185 685 187.5 692.5C187.5 695 187.5 697.5 185 697.5C160 705 140 710 115 715C117.5 715 117.5 715 115 715Z" fill="black"/>
  <path d="M242.5 685C235 687.5 227.5 687.5 217.5 690C212.5 692.5 210 690 210 685C210 677.5 207.5 672.5 205 665C205 662.5 205 660 207.5 660C220 657.5 232.5 655 245 652.5C247.5 652.5 250 652.5 250 652.5C272.5 665 297.5 675 322.5 682.5C325 682.5 327.5 685 325 687.5C322.5 692.5 322.5 700 320 705C320 710 317.5 710 312.5 710C290 705 267.5 695 247.5 685C247.5 687.5 247.5 685 242.5 685Z" fill="black"/>
  <path d="M147.5 552.5C145 562.5 142.5 572.5 140 585C137.5 597.5 140 595 127.5 592.5C122.5 592.5 117.5 590 112.5 590C110 590 107.5 587.5 110 585C112.5 577.5 112.5 570 115 562.5C115 560 115 557.5 115 552.5C105 532.5 95 510 90 487.5C87.5 480 87.5 480 95 480C100 477.5 107.5 477.5 112.5 475C115 475 117.5 475 117.5 477.5C125 502.5 135 527.5 147.5 550C145 550 147.5 550 147.5 552.5Z" fill="black"/>
  <path d="M660 207.5C660 210 657.5 210 657.5 210C652.5 215 645 217.5 640 222.5C637.5 225 635 225 635 222.5C617.5 200 600 182.5 577.5 165C575 162.5 575 162.5 577.5 160C582.5 155 587.5 147.5 590 142.5C592.5 140 592.5 140 595 142.5C620 160 640 180 660 207.5C660 205 660 205 660 207.5Z" fill="black"/>
  <path d="M480 85H482.5C510 92.5 537.5 102.5 562.5 117.5C567.5 120 567.5 122.5 565 125C562.5 130 557.5 137.5 555 142.5C552.5 145 552.5 145 550 145C527.5 132.5 502.5 120 475 115C472.5 115 470 112.5 472.5 110C475 102.5 475 95 477.5 87.5C477.5 87.5 477.5 85 480 85Z" fill="black"/>
  <path d="M162.5 225C155 217.5 147.5 215 142.5 210C140 207.5 140 205 142.5 202.5C150 192.5 160 180 167.5 170C180 160 190 150 202.5 140C205 137.5 207.5 137.5 210 140C215 145 217.5 152.5 222.5 157.5C225 162.5 225 162.5 222.5 165C200 182.5 182.5 200 165 222.5C165 222.5 165 225 162.5 225Z" fill="black"/>
  <path d="M690 472.5C697.5 475 705 475 712.5 477.5C715 477.5 715 480 715 482.5C710 502.5 702.5 520 695 537.5C690 545 687.5 555 682.5 562.5C680 565 680 565 675 565C670 562.5 662.5 557.5 657.5 555C655 552.5 655 552.5 655 550C667.5 527.5 680 502.5 685 475C685 472.5 687.5 470 690 472.5Z" fill="black"/>
  <path d="M110 327.5C102.5 325 95 322.5 87.5 322.5C85 322.5 85 320 85 317.5C90 295 100 272.5 110 252.5C112.5 247.5 115 242.5 117.5 237.5C122.5 232.5 122.5 232.5 125 235C132.5 240 137.5 242.5 145 247.5C147.5 250 147.5 250 145 252.5C132.5 275 120 300 115 327.5C115 327.5 115 330 110 327.5Z" fill="black"/>
  <path d="M75 400C75 385 75 372.5 77.5 357.5C77.5 352.5 80 352.5 85 352.5C90 352.5 97.5 355 105 355C107.5 355 110 357.5 110 360C107.5 387.5 107.5 412.5 110 440C110 442.5 110 445 107.5 445C100 445 92.5 447.5 85 447.5C80 447.5 80 445 80 442.5C75 430 75 415 75 400Z" fill="black"/>
  <path d="M715 320C715 322.5 715 322.5 712.5 322.5C705 325 697.5 325 690 327.5C685 327.5 685 325 685 322.5C680 300 670 280 660 260C657.5 257.5 657.5 255 655 250C652.5 247.5 655 247.5 655 245C662.5 240 667.5 237.5 675 232.5C677.5 232.5 677.5 232.5 680 232.5C695 260 707.5 290 715 320Z" fill="black"/>
  <path d="M660 592.5C660 592.5 660 595 657.5 595C640 617.5 617.5 640 595 657.5C592.5 660 590 660 590 657.5C585 652.5 582.5 645 577.5 640C575 637.5 575 635 577.5 632.5C597.5 617.5 617.5 597.5 632.5 577.5C635 575 635 575 640 577.5C645 582.5 652.5 585 657.5 590C660 592.5 660 592.5 660 592.5Z" fill="black"/>
  <path d="M400 75C412.5 75 427.5 75 442.5 77.5C447.5 77.5 447.5 80 447.5 85C447.5 90 445 97.5 445 102.5C445 105 442.5 107.5 440 107.5C415 105 387.5 105 362.5 107.5C357.5 107.5 357.5 107.5 357.5 102.5C357.5 95 355 90 355 82.5C355 80 355 77.5 360 77.5C370 75 385 75 400 75Z" fill="black"/>
  <path d="M400 725C385 725 370 725 355 722.5C350 722.5 350 720 350 715C350 710 352.5 702.5 352.5 695C352.5 692.5 355 690 357.5 690C385 692.5 410 692.5 437.5 690C440 690 442.5 690 442.5 695C442.5 702.5 445 710 445 715C445 720 442.5 720 440 720C430 725 415 725 400 725Z" fill="black"/>
  <path d="M320 85C322.5 85 322.5 85 322.5 87.5C325 95 325 102.5 327.5 110C327.5 115 325 115 322.5 115C300 120 277.5 130 257.5 140C250 145 245 145 240 137.5C237.5 132.5 237.5 130 235 127.5C232.5 122.5 232.5 122.5 237.5 120C257.5 107.5 280 97.5 302.5 90C307.5 87.5 312.5 87.5 320 85Z" fill="black"/>
  <path d="M725 400C725 415 725 427.5 722.5 442.5C722.5 447.5 720 447.5 715 447.5C710 447.5 702.5 445 697.5 445C690 445 690 445 692.5 437.5C695 415 695 395 692.5 372.5C692.5 370 692.5 365 692.5 360C692.5 357.5 692.5 355 697.5 355C705 355 710 352.5 717.5 352.5C722.5 352.5 722.5 352.5 722.5 357.5C725 370 725 385 725 400Z" fill="black"/>
  <path d="M480 715C477.5 715 477.5 715 477.5 712.5C475 705 475 697.5 472.5 690C472.5 687.5 475 685 477.5 685C500 680 520 670 540 660C542.5 657.5 545 657.5 550 655C552.5 652.5 552.5 655 555 655C560 662.5 562.5 667.5 567.5 675C567.5 677.5 567.5 677.5 567.5 680C540 695 512.5 707.5 480 715Z" fill="black"/>
</svg>
